<svg id="Tree" xmlns="http://www.w3.org/2000/svg" xmlns:xlink="http://www.w3.org/1999/xlink" width="342" height="391" viewBox="0 0 342 391">
  <defs>
    <style>
      .cls-1, .cls-10, .cls-11, .cls-3, .cls-4, .cls-5, .cls-6, .cls-7, .cls-8, .cls-9 {
        fill: #65889b;
      }

      .cls-1, .cls-10, .cls-11, .cls-12, .cls-13, .cls-14, .cls-15, .cls-16, .cls-17, .cls-18, .cls-19, .cls-2, .cls-20, .cls-21, .cls-22, .cls-23, .cls-24, .cls-25, .cls-26, .cls-27, .cls-28, .cls-29, .cls-3, .cls-30, .cls-31, .cls-32, .cls-33, .cls-34, .cls-35, .cls-36, .cls-37, .cls-38, .cls-39, .cls-4, .cls-40, .cls-41, .cls-42, .cls-43, .cls-44, .cls-45, .cls-46, .cls-47, .cls-48, .cls-49, .cls-5, .cls-50, .cls-51, .cls-52, .cls-6, .cls-7, .cls-8, .cls-9 {
        fill-rule: evenodd;
      }

      .cls-2 {
        fill: #456678;
      }

      .cls-3 {
        filter: url(#filter);
      }

      .cls-4 {
        filter: url(#filter-2);
      }

      .cls-5 {
        filter: url(#filter-3);
      }

      .cls-6 {
        filter: url(#filter-4);
      }

      .cls-7 {
        filter: url(#filter-5);
      }

      .cls-8 {
        filter: url(#filter-6);
      }

      .cls-9 {
        filter: url(#filter-7);
      }

      .cls-10 {
        filter: url(#filter-8);
      }

      .cls-11 {
        filter: url(#filter-9);
      }

      .cls-12, .cls-13, .cls-14, .cls-15, .cls-16, .cls-17, .cls-18, .cls-19, .cls-20, .cls-21, .cls-22, .cls-23, .cls-24, .cls-25, .cls-26, .cls-27, .cls-28, .cls-29, .cls-30, .cls-31, .cls-32, .cls-33, .cls-34, .cls-35, .cls-36, .cls-37, .cls-38, .cls-39, .cls-40, .cls-41, .cls-42, .cls-43, .cls-44, .cls-45, .cls-46, .cls-47, .cls-48, .cls-49, .cls-50, .cls-51 {
        fill: #53b45e;
      }

      .cls-12 {
        filter: url(#filter-10);
      }

      .cls-13 {
        filter: url(#filter-11);
      }

      .cls-14 {
        filter: url(#filter-12);
      }

      .cls-15 {
        filter: url(#filter-13);
      }

      .cls-16 {
        filter: url(#filter-14);
      }

      .cls-17 {
        filter: url(#filter-15);
      }

      .cls-18 {
        filter: url(#filter-16);
      }

      .cls-19 {
        filter: url(#filter-17);
      }

      .cls-20 {
        filter: url(#filter-18);
      }

      .cls-21 {
        filter: url(#filter-19);
      }

      .cls-22 {
        filter: url(#filter-20);
      }

      .cls-23 {
        filter: url(#filter-21);
      }

      .cls-24 {
        filter: url(#filter-22);
      }

      .cls-26 {
        filter: url(#filter-23);
      }

      .cls-27 {
        filter: url(#filter-24);
      }

      .cls-28 {
        filter: url(#filter-25);
      }

      .cls-29 {
        filter: url(#filter-26);
      }

      .cls-30 {
        filter: url(#filter-27);
      }

      .cls-31 {
        filter: url(#filter-28);
      }

      .cls-32 {
        filter: url(#filter-29);
      }

      .cls-33 {
        filter: url(#filter-30);
      }

      .cls-34 {
        filter: url(#filter-31);
      }

      .cls-35 {
        filter: url(#filter-32);
      }

      .cls-36 {
        filter: url(#filter-33);
      }

      .cls-37 {
        filter: url(#filter-34);
      }

      .cls-38 {
        filter: url(#filter-35);
      }

      .cls-39 {
        filter: url(#filter-36);
      }

      .cls-40 {
        filter: url(#filter-37);
      }

      .cls-41 {
        filter: url(#filter-38);
      }

      .cls-42 {
        filter: url(#filter-39);
      }

      .cls-43 {
        filter: url(#filter-40);
      }

      .cls-44 {
        filter: url(#filter-41);
      }

      .cls-45 {
        filter: url(#filter-42);
      }

      .cls-46 {
        filter: url(#filter-43);
      }

      .cls-47 {
        filter: url(#filter-44);
      }

      .cls-48 {
        filter: url(#filter-45);
      }

      .cls-49 {
        filter: url(#filter-46);
      }

      .cls-50 {
        filter: url(#filter-47);
      }

      .cls-51 {
        filter: url(#filter-48);
      }

      .cls-52 {
        fill: #468c4e;
      }
    </style>
    <filter id="filter" x="248.094" y="90.875" width="19.937" height="24.156" filterUnits="userSpaceOnUse">
      <feFlood result="flood" flood-color="#456678"/>
      <feComposite result="composite" operator="in" in2="SourceGraphic"/>
      <feBlend result="blend" in2="SourceGraphic"/>
    </filter>
    <filter id="filter-2" x="209.531" y="82.031" width="44.219" height="16.063" filterUnits="userSpaceOnUse">
      <feFlood result="flood" flood-color="#456678"/>
      <feComposite result="composite" operator="in" in2="SourceGraphic"/>
      <feBlend result="blend" in2="SourceGraphic"/>
    </filter>
    <filter id="filter-3" x="251.094" y="105.562" width="37.062" height="11.563" filterUnits="userSpaceOnUse">
      <feFlood result="flood" flood-color="#456678"/>
      <feComposite result="composite" operator="in" in2="SourceGraphic"/>
      <feBlend result="blend" in2="SourceGraphic"/>
    </filter>
    <filter id="filter-4" x="169.281" y="135.25" width="139.875" height="34.719" filterUnits="userSpaceOnUse">
      <feFlood result="flood" flood-color="#456678"/>
      <feComposite result="composite" operator="in" in2="SourceGraphic"/>
      <feBlend result="blend" in2="SourceGraphic"/>
    </filter>
    <filter id="filter-5" x="188.688" y="162.094" width="27.374" height="16.812" filterUnits="userSpaceOnUse">
      <feFlood result="flood" flood-color="#456678"/>
      <feComposite result="composite" operator="in" in2="SourceGraphic"/>
      <feBlend result="blend" in2="SourceGraphic"/>
    </filter>
    <filter id="filter-6" x="213.031" y="103.938" width="20.969" height="10.156" filterUnits="userSpaceOnUse">
      <feFlood result="flood" flood-color="#456678"/>
      <feComposite result="composite" operator="in" in2="SourceGraphic"/>
      <feBlend result="blend" in2="SourceGraphic"/>
    </filter>
    <filter id="filter-7" x="255.719" y="154.406" width="43.062" height="10.5" filterUnits="userSpaceOnUse">
      <feFlood result="flood" flood-color="#456678"/>
      <feComposite result="composite" operator="in" in2="SourceGraphic"/>
      <feBlend result="blend" in2="SourceGraphic"/>
    </filter>
    <filter id="filter-8" x="194.344" y="111.062" width="83.094" height="68.844" filterUnits="userSpaceOnUse">
      <feFlood result="flood" flood-color="#456678"/>
      <feComposite result="composite" operator="in" in2="SourceGraphic"/>
      <feBlend result="blend" in2="SourceGraphic"/>
    </filter>
    <filter id="filter-9" x="227.875" y="115.906" width="24.906" height="22.875" filterUnits="userSpaceOnUse">
      <feFlood result="flood" flood-color="#456678"/>
      <feComposite result="composite" operator="in" in2="SourceGraphic"/>
      <feBlend result="blend" in2="SourceGraphic"/>
    </filter>
    <filter id="filter-10" x="310.156" y="136.625" width="14.375" height="8.406" filterUnits="userSpaceOnUse">
      <feFlood result="flood" flood-color="#468c4e"/>
      <feComposite result="composite" operator="in" in2="SourceGraphic"/>
      <feBlend result="blend" in2="SourceGraphic"/>
    </filter>
    <filter id="filter-11" x="300" y="122.312" width="9.188" height="13.376" filterUnits="userSpaceOnUse">
      <feFlood result="flood" flood-color="#468c4e"/>
      <feComposite result="composite" operator="in" in2="SourceGraphic"/>
      <feBlend result="blend" in2="SourceGraphic"/>
    </filter>
    <filter id="filter-12" x="299.75" y="154.719" width="14.562" height="8.25" filterUnits="userSpaceOnUse">
      <feFlood result="flood" flood-color="#468c4e"/>
      <feComposite result="composite" operator="in" in2="SourceGraphic"/>
      <feBlend result="blend" in2="SourceGraphic"/>
    </filter>
    <filter id="filter-13" x="288.812" y="162.438" width="12.688" height="9.874" filterUnits="userSpaceOnUse">
      <feFlood result="flood" flood-color="#468c4e"/>
      <feComposite result="composite" operator="in" in2="SourceGraphic"/>
      <feBlend result="blend" in2="SourceGraphic"/>
    </filter>
    <filter id="filter-14" x="276.25" y="165.562" width="9.156" height="13.563" filterUnits="userSpaceOnUse">
      <feFlood result="flood" flood-color="#468c4e"/>
      <feComposite result="composite" operator="in" in2="SourceGraphic"/>
      <feBlend result="blend" in2="SourceGraphic"/>
    </filter>
    <filter id="filter-15" x="277.031" y="149.781" width="12.719" height="9.844" filterUnits="userSpaceOnUse">
      <feFlood result="flood" flood-color="#468c4e"/>
      <feComposite result="composite" operator="in" in2="SourceGraphic"/>
      <feBlend result="blend" in2="SourceGraphic"/>
    </filter>
    <filter id="filter-16" x="293.156" y="138.875" width="10.938" height="11.563" filterUnits="userSpaceOnUse">
      <feFlood result="flood" flood-color="#468c4e"/>
      <feComposite result="composite" operator="in" in2="SourceGraphic"/>
      <feBlend result="blend" in2="SourceGraphic"/>
    </filter>
    <filter id="filter-17" x="289.094" y="103.875" width="14.625" height="8.187" filterUnits="userSpaceOnUse">
      <feFlood result="flood" flood-color="#468c4e"/>
      <feComposite result="composite" operator="in" in2="SourceGraphic"/>
      <feBlend result="blend" in2="SourceGraphic"/>
    </filter>
    <filter id="filter-18" x="273.031" y="92.094" width="9.188" height="13.468" filterUnits="userSpaceOnUse">
      <feFlood result="flood" flood-color="#468c4e"/>
      <feComposite result="composite" operator="in" in2="SourceGraphic"/>
      <feBlend result="blend" in2="SourceGraphic"/>
    </filter>
    <filter id="filter-19" x="278.656" y="122.781" width="14.313" height="8.5" filterUnits="userSpaceOnUse">
      <feFlood result="flood" flood-color="#468c4e"/>
      <feComposite result="composite" operator="in" in2="SourceGraphic"/>
      <feBlend result="blend" in2="SourceGraphic"/>
    </filter>
    <filter id="filter-20" x="265.125" y="114.062" width="13.187" height="9.469" filterUnits="userSpaceOnUse">
      <feFlood result="flood" flood-color="#468c4e"/>
      <feComposite result="composite" operator="in" in2="SourceGraphic"/>
      <feBlend result="blend" in2="SourceGraphic"/>
    </filter>
    <filter id="filter-21" x="267.844" y="78.375" width="10.687" height="11.906" filterUnits="userSpaceOnUse">
      <feFlood result="flood" flood-color="#468c4e"/>
      <feComposite result="composite" operator="in" in2="SourceGraphic"/>
      <feBlend result="blend" in2="SourceGraphic"/>
    </filter>
    <filter id="filter-22" x="252.625" y="84.031" width="8.219" height="14.563" filterUnits="userSpaceOnUse">
      <feFlood result="flood" flood-color="#468c4e"/>
      <feComposite result="composite" operator="in" in2="SourceGraphic"/>
      <feBlend result="blend" in2="SourceGraphic"/>
    </filter>
    <filter id="filter-23" x="251.969" y="68.781" width="9.969" height="12.563" filterUnits="userSpaceOnUse">
      <feFlood result="flood" flood-color="#468c4e"/>
      <feComposite result="composite" operator="in" in2="SourceGraphic"/>
      <feBlend result="blend" in2="SourceGraphic"/>
    </filter>
    <filter id="filter-24" x="227.594" y="76.625" width="8.25" height="14.563" filterUnits="userSpaceOnUse">
      <feFlood result="flood" flood-color="#468c4e"/>
      <feComposite result="composite" operator="in" in2="SourceGraphic"/>
      <feBlend result="blend" in2="SourceGraphic"/>
    </filter>
    <filter id="filter-25" x="235.656" y="68.719" width="11.594" height="11" filterUnits="userSpaceOnUse">
      <feFlood result="flood" flood-color="#468c4e"/>
      <feComposite result="composite" operator="in" in2="SourceGraphic"/>
      <feBlend result="blend" in2="SourceGraphic"/>
    </filter>
    <filter id="filter-26" x="234.594" y="95.438" width="12.906" height="9.719" filterUnits="userSpaceOnUse">
      <feFlood result="flood" flood-color="#468c4e"/>
      <feComposite result="composite" operator="in" in2="SourceGraphic"/>
      <feBlend result="blend" in2="SourceGraphic"/>
    </filter>
    <filter id="filter-27" x="204.25" y="99.906" width="12.906" height="9.688" filterUnits="userSpaceOnUse">
      <feFlood result="flood" flood-color="#468c4e"/>
      <feComposite result="composite" operator="in" in2="SourceGraphic"/>
      <feBlend result="blend" in2="SourceGraphic"/>
    </filter>
    <filter id="filter-28" x="268.781" y="131.156" width="8.281" height="14.532" filterUnits="userSpaceOnUse">
      <feFlood result="flood" flood-color="#468c4e"/>
      <feComposite result="composite" operator="in" in2="SourceGraphic"/>
      <feBlend result="blend" in2="SourceGraphic"/>
    </filter>
    <filter id="filter-29" x="254.344" y="128.625" width="14.281" height="8.563" filterUnits="userSpaceOnUse">
      <feFlood result="flood" flood-color="#468c4e"/>
      <feComposite result="composite" operator="in" in2="SourceGraphic"/>
      <feBlend result="blend" in2="SourceGraphic"/>
    </filter>
    <filter id="filter-30" x="238.375" y="118.781" width="13.719" height="8.969" filterUnits="userSpaceOnUse">
      <feFlood result="flood" flood-color="#468c4e"/>
      <feComposite result="composite" operator="in" in2="SourceGraphic"/>
      <feBlend result="blend" in2="SourceGraphic"/>
    </filter>
    <filter id="filter-31" x="221.875" y="139.312" width="13.719" height="8.938" filterUnits="userSpaceOnUse">
      <feFlood result="flood" flood-color="#468c4e"/>
      <feComposite result="composite" operator="in" in2="SourceGraphic"/>
      <feBlend result="blend" in2="SourceGraphic"/>
    </filter>
    <filter id="filter-32" x="239.594" y="140.844" width="9.375" height="13.218" filterUnits="userSpaceOnUse">
      <feFlood result="flood" flood-color="#468c4e"/>
      <feComposite result="composite" operator="in" in2="SourceGraphic"/>
      <feBlend result="blend" in2="SourceGraphic"/>
    </filter>
    <filter id="filter-33" x="256.531" y="138.625" width="9.375" height="13.219" filterUnits="userSpaceOnUse">
      <feFlood result="flood" flood-color="#468c4e"/>
      <feComposite result="composite" operator="in" in2="SourceGraphic"/>
      <feBlend result="blend" in2="SourceGraphic"/>
    </filter>
    <filter id="filter-34" x="212.969" y="124.062" width="8.156" height="14.626" filterUnits="userSpaceOnUse">
      <feFlood result="flood" flood-color="#468c4e"/>
      <feComposite result="composite" operator="in" in2="SourceGraphic"/>
      <feBlend result="blend" in2="SourceGraphic"/>
    </filter>
    <filter id="filter-35" x="185.75" y="143.781" width="13.719" height="8.938" filterUnits="userSpaceOnUse">
      <feFlood result="flood" flood-color="#468c4e"/>
      <feComposite result="composite" operator="in" in2="SourceGraphic"/>
      <feBlend result="blend" in2="SourceGraphic"/>
    </filter>
    <filter id="filter-36" x="198.562" y="133.656" width="9.969" height="12.594" filterUnits="userSpaceOnUse">
      <feFlood result="flood" flood-color="#468c4e"/>
      <feComposite result="composite" operator="in" in2="SourceGraphic"/>
      <feBlend result="blend" in2="SourceGraphic"/>
    </filter>
    <filter id="filter-37" x="223.344" y="120.844" width="9.406" height="13.187" filterUnits="userSpaceOnUse">
      <feFlood result="flood" flood-color="#468c4e"/>
      <feComposite result="composite" operator="in" in2="SourceGraphic"/>
      <feBlend result="blend" in2="SourceGraphic"/>
    </filter>
    <filter id="filter-38" x="201.219" y="120.312" width="9.906" height="12.657" filterUnits="userSpaceOnUse">
      <feFlood result="flood" flood-color="#468c4e"/>
      <feComposite result="composite" operator="in" in2="SourceGraphic"/>
      <feBlend result="blend" in2="SourceGraphic"/>
    </filter>
    <filter id="filter-39" x="266.781" y="176.312" width="14.375" height="8.407" filterUnits="userSpaceOnUse">
      <feFlood result="flood" flood-color="#468c4e"/>
      <feComposite result="composite" operator="in" in2="SourceGraphic"/>
      <feBlend result="blend" in2="SourceGraphic"/>
    </filter>
    <filter id="filter-40" x="246.625" y="179.812" width="9.531" height="13.126" filterUnits="userSpaceOnUse">
      <feFlood result="flood" flood-color="#468c4e"/>
      <feComposite result="composite" operator="in" in2="SourceGraphic"/>
      <feBlend result="blend" in2="SourceGraphic"/>
    </filter>
    <filter id="filter-41" x="243.031" y="162.062" width="12.813" height="9.782" filterUnits="userSpaceOnUse">
      <feFlood result="flood" flood-color="#468c4e"/>
      <feComposite result="composite" operator="in" in2="SourceGraphic"/>
      <feBlend result="blend" in2="SourceGraphic"/>
    </filter>
    <filter id="filter-42" x="256" y="162.906" width="9.781" height="12.813" filterUnits="userSpaceOnUse">
      <feFlood result="flood" flood-color="#468c4e"/>
      <feComposite result="composite" operator="in" in2="SourceGraphic"/>
      <feBlend result="blend" in2="SourceGraphic"/>
    </filter>
    <filter id="filter-43" x="216.562" y="168.844" width="14.282" height="8.531" filterUnits="userSpaceOnUse">
      <feFlood result="flood" flood-color="#468c4e"/>
      <feComposite result="composite" operator="in" in2="SourceGraphic"/>
      <feBlend result="blend" in2="SourceGraphic"/>
    </filter>
    <filter id="filter-44" x="231.344" y="173.25" width="8.812" height="13.906" filterUnits="userSpaceOnUse">
      <feFlood result="flood" flood-color="#468c4e"/>
      <feComposite result="composite" operator="in" in2="SourceGraphic"/>
      <feBlend result="blend" in2="SourceGraphic"/>
    </filter>
    <filter id="filter-45" x="196.25" y="164.688" width="12.781" height="9.781" filterUnits="userSpaceOnUse">
      <feFlood result="flood" flood-color="#468c4e"/>
      <feComposite result="composite" operator="in" in2="SourceGraphic"/>
      <feBlend result="blend" in2="SourceGraphic"/>
    </filter>
    <filter id="filter-46" x="210.156" y="179.625" width="9.75" height="12.844" filterUnits="userSpaceOnUse">
      <feFlood result="flood" flood-color="#468c4e"/>
      <feComposite result="composite" operator="in" in2="SourceGraphic"/>
      <feBlend result="blend" in2="SourceGraphic"/>
    </filter>
    <filter id="filter-47" x="182.219" y="168.594" width="8.343" height="14.468" filterUnits="userSpaceOnUse">
      <feFlood result="flood" flood-color="#468c4e"/>
      <feComposite result="composite" operator="in" in2="SourceGraphic"/>
      <feBlend result="blend" in2="SourceGraphic"/>
    </filter>
    <filter id="filter-48" x="193.312" y="180.188" width="8.219" height="14.593" filterUnits="userSpaceOnUse">
      <feFlood result="flood" flood-color="#468c4e"/>
      <feComposite result="composite" operator="in" in2="SourceGraphic"/>
      <feBlend result="blend" in2="SourceGraphic"/>
    </filter>
  </defs>
  <g id="Trunk_and_branches" data-name="Trunk and branches">
    <path id="Trunk" class="cls-1" d="M107.154,271.436s7.3-4.649,12.463-4.828,7.583,0.3,9.034-1.073,11.213-8.813,12.723-13.756,3.069-7.669,2.836-13.2-0.814-29.229-3.03-35.138-0.336-7.044.741-9.337,5.3-10.4.344-15.632-8.794-10.4-17.51-16.153-11.311-9.7-11.5-12.992,0.172-4.991-1.214-7.255,4.354-4.129,4.354-4.129,2.674,0.129,3.72,3.874a10.845,10.845,0,0,0,3.988,6.133,48.293,48.293,0,0,0,5.568,3.126c1.719,0.89,6.312,2.207,8.646,3.817s3,1.721,6.867,3.677,5.253,1.452,7.686,4.636,3.842,5.143,6.923,8.6,3.663,1.774,6.621,6.789a25.58,25.58,0,0,1,3.762,14.616c-0.341,4.306-3.278,7.487-2.5,14.566s2.728,13.556,3.551,17.283-1.147,3.182-1.488,7.488-0.851,7.9.756,13.035,1.366,10.988,3.8,14.171,6.616,4.022,8.914,6.076a14.714,14.714,0,0,0,9.09,3.853c4.217,0.417-28.131,3.652-29.3,4.313-0.756.427-16.2,4.327-30.666,8.807a46.837,46.837,0,0,1-26.985.119Z"/>
    <path id="Trunk_dark" data-name="Trunk dark" class="cls-2" d="M164.455,175.782a17.627,17.627,0,0,1,1.961,2.81,25.466,25.466,0,0,1,3.762,14.579c-0.341,4.3-3.278,7.469-2.5,14.53s2.728,13.523,3.551,17.241-1.147,3.174-1.488,7.469-0.851,7.884.756,13,1.366,10.96,3.8,14.136,6.616,4.011,8.914,6.061a14.737,14.737,0,0,0,9.09,3.843c4.217,0.416-28.131,3.643-29.3,4.3-0.305.172-3,.907-7.057,2.017C151.51,238.126,155.081,206.442,164.455,175.782Z"/>
    <path class="cls-1" d="M84.194,120.237c-0.2-4.15-.242-2.317.446-8.474s5.333-6.331,0-11.6-9.831-5.663-11.6-8.921-1.58-4.324-5.8-6.244-7.378-1.425-5.8,0,3.772,0.582,5.352,1.784,2.434,1.251,4.46,4.906,6.448,4.6,8.474,7.136,2.434,3.927,1.784,6.69-1.58,4.15-1.338,5.8-2.918,4.15-1.784,5.8S84.4,124.387,84.194,120.237Z"/>
    <path class="cls-1" d="M167.6,191.6s0.446-9.226,5.8-21.409,9.367-26.174,16.949-33,11.15-19.93,11.6-26.315,0.551-16.926,1.784-19.625c3.122-6.831,3.345-8.78,15.165-14.272,20.333-9.449,28.545-15.024,27.653-20.963s-4.014-7.888-4.907-4.014,2.231,4.155-4.46,9.366-12.042,7.277-17.394,8.474-12.043.587-18.287,6.69-7.582,7.723-8.92,13.38a161.144,161.144,0,0,0-3.568,16.949c-0.892,6.55-1.338,12.183-8.028,20.517s-10.705,6.384-16.949,13.826-6.244,3.709-10.258,14.718-3.568,26.01,0,27.207S167.6,191.6,167.6,191.6Z"/>
    <path id="Shape_5_copy" data-name="Shape 5 copy" class="cls-2" d="M169,192a49.31,49.31,0,0,1,4.4-22.313c5.353-12.132,9.367-26.065,16.949-32.867s11.15-19.846,11.6-26.2c0.109-1.556.2-3.36,0.288-5.236C180.529,127.65,168.122,162.743,161,189,166.817,200.092,169,192,169,192Z"/>
    <path class="cls-1" d="M153.772,160.825s-5.352-18.592-5.352-28.545,2.676-20.822,1.338-27.653-7.137-20.376-7.137-25.869-2.676-27.066-.892-31.667,4.461-7,8.029-13.38S157.34,25.377,156,18.992s5.8-4.319,4.906-.446-1.338,9.507-3.122,14.272S150.65,45,149.312,48.429s-2.23,5.493-.446,10.258,1.867,7.682,2.23,11.6c0.389,4.2.446,7.723,2.23,10.7s2.676,6.831,3.568,13.38,0.892,6.385,4.014,12.489,3.568,7.723,4.46,15.164,4.906,8.615,4.46,21.855S153.772,160.825,153.772,160.825Z"/>
    <path class="cls-1" d="M149,138c-2.595.182-4.69,0.818-8-2s-8.405-11.611-6-8-2.262-4.182,0-8-2.548-5.9-1-5-5.405-4.9-5-7,2.738,3.532,4,4,5.881,3.389,5,8,0.434,5,2,7c2.833,3.611,1.31,4.675,4,6s6.024-.468,7,0S151.6,137.818,149,138Z"/>
    <path class="cls-3" d="M248.327,112.209c1.357-4.15-1.134-2.54,3.122-7.136s4.664-4.547,8.92-7.582,4.664-.31,6.244-4.906,1.765,1.251.892,2.676-4.033,2.366-5.352,4.014-4.479,2.589-5.8,4.46-4.7,2.143-4.46,4.906,0.65,4.373,0,5.352S246.97,116.359,248.327,112.209Z"/>
    <path id="Shape_8_copy" data-name="Shape 8 copy" class="cls-1" d="M111.4,136.74c2.008-2.589,4.684-2.094,2.231-5.8s-4.015-5.216-4.907-8.921,1.338-2.763-.892-8.474-3.568-6.108-4.46-10.258-1.561-2.763-2.23-8.029,1.115-6.777-1.338-9.812-0.446-2.986-4.014-4.46c-3.506-1.448-4.014-2.317-8.474-4.014s-6.467-2.986-11.6-4.906-5.129-3.655-9.366-4.906-0.446-2.54.892-2.23,2.23,1.474,4.906,2.676,7.136,3.7,9.812,4.46,6.69,2.366,9.366,3.122a29.958,29.958,0,0,1,7.136,3.122c2.007,1.2,4.46,3.258,4.906,4.906s0,3.7.892,6.244,0.892,2.589,1.784,5.8,2.007,4.373,2.676,7.583,0.892,4.6,2.676,6.244,3.123,1.92,3.569,7.136,0.669,5.711,2.23,8.028,5.352,3.7,4.014,7.137,1.115,9.279-1.784,13.826m-6.691,21.409c-4-1.7-3.81,1.7-8.92-4.014s-2.472-6.109-8.92-8.921-10.723-.087-15.164-2.23-2.7.359-.892,1.338,3.326,0.582,8.028,1.784,8.9,0.8,9.812,3.122,2.434,2.813,4.906,5.8,0.873,4.15,4.014,5.8S116.734,168.32,112.738,166.623Z"/>
    <path class="cls-1" d="M68.137,117.115c-2.88,1.648-3.587,2.366-8.028,5.8s-3.364,7.273-8.028,8.475-6.04-.533-10.7.892-5.148,3.927-10.258,4.014-4.033-.533-1.338-1.338,4.664-.756,7.136-2.676,4.218-4.547,9.366-4.014,5.779,0.582,7.582-2.23,3.1-2.987,4.906-6.245c1.612-2.913,2.434-3.878,5.352-4.014"/>
    <path class="cls-1" d="M113.631,146.106c-3.569-.582-5.353-1.2-12.043-6.69s-1.338-2.094-9.812-7.136-7.3-7.718-15.164-9.813c-6.584-1.753-4.375-2.513-8.92-3.568-5.284-1.225-5.2-2.242-8.92-2.676C54.278,115.7,46,112.1,48.959,113.1c2.23,0.756-16.354-3.8-11.15-3.568,5,0.226-14.249-.678-12.488-3.122,1.854-2.574,8.709-.887,11.6-0.446,3.494,0.533,8.1,3.555,12.488,4.014,1.96,0.2,6.913,1.7,9.366,1.784a45.857,45.857,0,0,1,11.15,2.676c4.4,1.579,9.366,2.143,12.488,3.568,2.352,1.074,3.122,1.92,7.582,4.906s5.8,4.6,9.366,7.137c4.5,3.2,5.575,5.042,9.812,5.8s5.576-.087,6.691,2.676S117.2,146.688,113.631,146.106Zm-3.569-40.141c4.926-3.927,5.556-1.871,9.813-6.69s4.664-3.432,4.46-10.7,0.65-3.655-2.676-9.366-3.587-4.547-2.23-.892,2.657,5.934,2.23,8.474-0.911,6.157-2.676,7.136-4.034,1.251-6.245,4.014-4.7,1.92-5.352,4.014S105.137,109.892,110.062,105.965Zm122.654,14.272c3.141,3.878,1.542,1.7,5.352,8.029s2.88,7.718,7.583,10.7,4.664,1.7,9.366,1.784,6.671-.533,4.014-1.338-2.918,1.92-7.136-.892-4.925-1.871-7.136-6.244-3.365-3.655-5.353-8.475-1.8-5.439-4.014-6.244S229.575,116.359,232.716,120.237Z"/>
    <path class="cls-1" d="M201.5,97.045c3.141-1.251,1.319-1.871,8.028-1.784s6,0.359,12.935,1.338,7.34,2.812,11.6,0,4.887-4.1,9.367-6.244a86.394,86.394,0,0,0,8.028-4.46c3.81-2.143,2.211-4.77,0-3.568S249.2,85.807,246.1,86.34s-2.25.582-6.691,2.676-3.364,3.7-7.582,3.568-3.364.582-8.028,0-5.148-2.986-9.366-2.676-1.581-.533-7.137.446-8.493,2.812-8.92,4.014S198.354,98.3,201.5,97.045Z"/>
    <path id="Shape_18_copy" data-name="Shape 18 copy" class="cls-4" d="M209.523,95.261l0.625,0.009c6.047,0.1,5.6.382,12.31,1.329,6.932,0.979,7.34,2.812,11.6,0s4.887-4.1,9.367-6.244a86.394,86.394,0,0,0,8.028-4.46c3.81-2.143,2.211-4.77,0-3.568S249.2,85.807,246.1,86.34s-2.25.582-6.691,2.676-3.364,3.7-7.582,3.568-3.364.582-8.028,0-5.148-2.986-9.366-2.676A35.159,35.159,0,0,0,209.523,95.261Z"/>
    <path class="cls-1" d="M91.33,131.834c-6.225,1.648-4.7,1.92-12.042,4.014s-10.946-.087-7.136-0.446,5.333,0.136,7.136-.892a66.024,66.024,0,0,0,5.8-3.568,11.176,11.176,0,0,1,4.014-2.23C91.349,127.907,97.555,130.186,91.33,131.834Z"/>
    <path class="cls-5" d="M252.787,113.547c4.256-.359,4.441,3.035,12.042-0.892s5.971-2.613,10.7-5.352c4.324-2.5,9.9-1.9,11.6-.892,1.254,0.744,1.765,1.92-.892,1.784s-3.141-1.425-6.69,0-3.142.582-7.137,3.122-11.169,5.934-13.826,5.8-4.906-.446-4.906-0.446S248.531,113.906,252.787,113.547Z"/>
    <path class="cls-1" d="M174.734,90.354c2.473-1.92,1.319.359,6.245-4.014s6.448-2.317,6.69-8.474-0.688-7.223-1.784-4.906,1.319,5.934-.446,7.136-3.364,2.143-5.8,4.014-6.264,1.7-6.691,3.568S172.262,92.275,174.734,90.354Z"/>
    <path class="cls-6" d="M172.95,169.745c9.033,1.724,18.287-6.108,22.3-5.8s8.92-5.216,18.287-3.568,17.84,2.366,25.422,1.338,18.733-1.648,25.423-5.353,7.009-.667,14.273-5.352c4.014-2.589,9.366-7,12.042-8.92,3.982-2.857,1.784-6.108,8.92-3.568s11.151,1.028,8.921,0-1.785-.533-4.461-1.338-4.014-1.648-7.136-1.784-3.122-.533-5.8.892-4.683,6.157-7.582,7.582-8.921,2.812-11.6,4.46-10.481,4.373-15.61,4.46-16.5,3.258-20.963,2.676-9.812-1.2-14.718-1.784-7.359-1.2-11.6-1.338-5.129,1.474-9.812,1.784-7.8.805-11.6,0.892-2.007.359-7.582,1.784-8.921,6.691-8.921,6.691S165.923,168.4,172.95,169.745Z"/>
    <path class="cls-1" d="M151.988,42.185c4.256-1.474.427,0.805,8.474-.892s8.009,0.359,12.934-3.122,4.441-5.439,8.475-7.136,3.549-2.094,6.244-4.014,1.542-2.763-.446-1.784-1.58,1.7-4.46,2.676-7.6,5.265-10.259,6.69-2.026,3.258-7.136,3.568-3.141.805-7.582,0.446-4.7-.756-6.244.446S147.731,43.659,151.988,42.185Z"/>
    <path class="cls-7" d="M189.453,165.285c2.026,2.763-.465.359,2.23,5.352s-0.242,6.38,4.906,7.582,4.441-.31,8.92.446,5.556-.31,8.475-1.338,2.657-3.209,0-2.23-2.473,1.474-5.353,1.338-1.357-.31-5.352-0.892-3.364,1.7-5.8-.446-2.918-4.1-3.122-7.136-0.019-4.1-2.23-5.352S187.427,162.522,189.453,165.285Z"/>
    <path class="cls-8" d="M214.43,113.1c-1.988-1.028-2.7.359,3.568-4.014s7.117-2.986,11.15-4.014,6.448-2.094,3.568.446-2.249.359-6.244,1.784-2.026-.979-5.8,3.122S217.755,114.821,214.43,113.1Z"/>
    <path class="cls-9" d="M258.585,158.6c7.155,3.878,14.922,5.934,19.179,6.244s5.779-.756,9.812-1.784,5.556-5.439,9.812-3.568-2.472-2.541-4.46-1.785-4.7,2.813-7.582,3.569-1.8,1.028-6.244-.446-6.933-3.209-10.259-4.015-6.04-2.986-7.582-2.23S251.43,154.716,258.585,158.6Z"/>
    <path id="Shape_14_copy" data-name="Shape 14 copy" class="cls-1" d="M143.513,72.96c-5.8-2.589-13.157-4.1-16.056-8.92s-2.9-7.669-8.474-11.6-10.036-4.77-10.7-6.69-0.669-4.1,1.338-2.676,2.007,1.92,4.461,3.122,3.568,1.028,5.8,2.676,2.676,0.582,4.906,4.014,3.122,4.6,5.8,6.69,2.676,2.143,6.244,3.122,6.913,3.7,7.582,5.8S149.312,75.549,143.513,72.96Z"/>
    <path class="cls-10" d="M198.373,121.575s8.028-3.878,12.489-2.676,6.244,0.359,9.812.892,7.359,1.474,12.934.446,10.7-4.1,15.165-3.122,6.021-.979,9.366,2.676,6.913,7.719,9.812,8.921,4.237,2.589,7.582,1.784,1.785-2.094-.446-2.23a10.459,10.459,0,0,1-6.69-2.23c-2.453-1.921-5.352-5.217-8.474-8.029s-5.575-4.993-9.366-5.8-5.352-.756-10.259.446-9.812,2.366-13.38,1.338-9.812-1.425-13.826-1.784-4.238-2.094-9.367-.446-9.366,6.69-9.366,6.69Zm5.352,33.005c1.134-2.589.65-3.878,4.014-7.582s3.549-1.2,8.029-4.906,6.448-2.986,8.028-5.8,2.88-1.425,2.23.446-1.58,1.028-4.014,3.568-4.256,3.481-6.244,5.352-2.473.805-4.46,4.014,0.2,5.265-1.339,6.69S202.591,157.169,203.725,154.58Zm24.531,6.691c0.911,3.209-.911,3.7,3.122,7.136s5.556,2.366,8.92,5.8-0.465,3.7,8.029,4.906,10.685-.979,15.164.446,1.1-1.871-2.676-2.23-5.371.582-8.028-.446-5.371-.31-7.582-2.676a38.792,38.792,0,0,0-6.691-5.8c-2.211-1.474-3.81-1.425-4.906-4.46S227.345,158.062,228.256,161.271Z"/>
    <path class="cls-1" d="M163.584,116.669c3.122-4.373,6.467-2.986,8.92-8.474s4.683-5.216,4.014-11.15-2.453-9.453-3.122-13.38-2.453-6.331-.446-8.92,1.784-4.547,3.122-8.028-1.561.359-2.676,2.23a64.034,64.034,0,0,0-3.122,6.69c-1.115,2.54-1.784,7.5-.446,10.258s3.122,4.6,2.23,7.582-2.676,5.711-4.014,8.474-3.345,3.481-4.906,5.352-3.568,2.366-3.568,4.906S160.462,121.042,163.584,116.669Z"/>
    <path class="cls-1" d="M208.631,73.852c-2.007-3.481-5.352-5.662-8.92-10.258s-4.906-6.777-5.352-11.6S194.805,47,195.7,42.631s3.568-5.662,1.784-8.028,4.014-.533,3.122,2.23-2.676,4.373-2.676,5.8-1.338,3.7-.892,6.69,0.223,5.934,1.784,7.582,2.23,4.373,4.46,5.8,2.676,3.7,5.352,4.906,6.691,0.582,6.691,3.568S210.639,77.333,208.631,73.852Z"/>
    <path class="cls-1" d="M197.035,52.443c3.345-.805,4.683-2.763,7.582-3.122s4.237-1.2,6.691,0a6.1,6.1,0,0,0,6.244-.446c1.561-1.028,4.237-1.425,2.23,0S215.768,52.8,213.538,52s-3.346-1.648-5.353-.892-5.352,1.028-6.69,1.784-1.784.359-2.676,2.23a10.593,10.593,0,0,0-.892,4.014S193.69,53.248,197.035,52.443Zm-63.78,110.612c-6.894,3.655-10.5,7.272-14.718,8.028s-6.041.805-16.949,4.906-14.96,8.164-20.07,6.244-7.824-5.439-13.38-6.69a56.326,56.326,0,0,0-11.15-1.338c-2.211-.136,1.319-1.648,3.122-1.784s6.448-.533,8.92.446,4.218,0.805,8.474,2.676,9.124,2.143,11.6,1.338,7.117-5.885,10.7-6.244,3.995-.087,8.028-2.23,5.779-3.209,9.367-5.352,6.448-5.886,9.366-5.353S140.149,159.4,133.255,163.055Z"/>
    <path class="cls-11" d="M228.594,117.561c2.249,1.871-.242-4.324,4.014,4.906s4.664,11.956,9.366,14.719,5.111,1.251,8.029.446,4.218-1.871.446-1.784-4.925,2.812-8.028-.892-3.588-4.547-4.907-8.92a21.771,21.771,0,0,0-5.8-9.367C230.174,115.418,226.345,115.69,228.594,117.561Z"/>
  </g>
  <g id="leafs">
    <path class="cls-12" d="M310.305,139.359c0.225-1.206,2.649-3.69,7.667-2.328,3.435,0.933,6.142,4.911,6.571,5.628-0.846.745-5.345,2.779-8.3,2.318-4.548-.709-6.306-3.34-6.071-4.785,1.535,0.107,4.742.489,4.742,0.489C314.855,140.678,311.917,139.842,310.305,139.359Z"/>
    <path id="Shape_3_copy_101" data-name="Shape 3 copy 101" class="cls-13" d="M301.6,135.2c-1.106-.531-2.871-3.519-0.247-8.008,1.8-3.073,6.343-4.648,7.147-4.874,0.5,1.01,1.288,5.884.072,8.618-1.87,4.2-4.869,5.215-6.2,4.611,0.5-1.454,1.71-4.449,1.71-4.449C304.056,131.148,302.483,133.766,301.6,135.2Z"/>
    <path id="Shape_3_copy_30" data-name="Shape 3 copy 30" class="cls-14" d="M299.754,159.271c-0.15-1.216,1.408-4.318,6.6-4.538,3.557-.151,7.34,2.822,7.966,3.375-0.58.966-4.253,4.266-7.21,4.722-4.549.7-7.021-1.275-7.234-2.724,1.5-.362,4.667-0.968,4.667-0.968C304.489,159.152,301.436,159.245,299.754,159.271Z"/>
    <path id="Shape_3_copy_107" data-name="Shape 3 copy 107" class="cls-15" d="M289.52,163.647c0.659-1.035,3.836-2.434,7.981.7,2.839,2.149,3.863,6.85,3.993,7.675-1.062.375-6,.581-8.566-0.95-3.953-2.356-4.6-5.453-3.843-6.706,1.384,0.673,4.215,2.225,4.215,2.225C293.247,166.569,290.834,164.7,289.52,163.647Z"/>
    <path id="Shape_3_copy_110" data-name="Shape 3 copy 110" class="cls-16" d="M278.471,165.712c1.1-.537,4.541-0.069,6.434,4.773,1.3,3.316-.288,7.859-0.608,8.63-1.1-.235-5.415-2.639-6.805-5.288-2.139-4.076-1.072-7.055.229-7.726,0.828,1.3,2.431,4.1,2.431,4.1C280.12,170.152,279.042,167.294,278.471,165.712Z"/>
    <path id="Shape_3_copy_106" data-name="Shape 3 copy 106" class="cls-17" d="M277.374,157.953c-0.7-1.01-.743-4.481,3.765-7.072,3.086-1.775,7.814-.883,8.624-0.68-0.069,1.124-1.8,5.746-4.219,7.515-3.712,2.72-6.816,2.107-7.674.92,1.16-1.011,3.694-3.012,3.694-3.012C281.52,155.663,278.854,157.153,277.374,157.953Z"/>
    <path id="Shape_3_copy_109" data-name="Shape 3 copy 109" class="cls-18" d="M294.373,139.506c0.881-.853,4.3-1.475,7.6,2.541,2.261,2.75,2.164,7.56,2.1,8.393-1.121.118-5.967-.829-8.111-2.916-3.3-3.211-3.207-6.374-2.178-7.416,1.189,0.976,3.582,3.144,3.582,3.144C297.319,143.215,295.407,140.833,294.373,139.506Z"/>
    <path id="Shape_3_copy" data-name="Shape 3 copy" class="cls-19" d="M289.1,107.708c-0.017-1.226,1.872-4.139,7.059-3.789,3.552,0.239,6.988,3.607,7.549,4.225-0.682.9-4.693,3.776-7.683,3.905-4.6.2-6.838-2.034-6.892-3.5,1.526-.2,4.745-0.453,4.745-0.453C293.815,108.107,290.77,107.865,289.1,107.708Z"/>
    <path id="Shape_3_copy_99" data-name="Shape 3 copy 99" class="cls-20" d="M274.708,105.08c-1.112-.515-2.921-3.478-0.362-8,1.752-3.1,6.275-4.74,7.075-4.978,0.514,1,1.374,5.865.2,8.617-1.809,4.231-4.792,5.285-6.135,4.7,0.483-1.461,1.645-4.474,1.645-4.474C277.11,101,275.575,103.638,274.708,105.08Z"/>
    <path id="Shape_3_copy_29" data-name="Shape 3 copy 29" class="cls-21" d="M278.674,128.209c-0.3-1.188.858-4.46,5.985-5.327,3.51-.593,7.635,1.884,8.325,2.355-0.456,1.031-3.688,4.763-6.565,5.584-4.425,1.263-7.124-.388-7.517-1.8,1.439-.546,4.51-1.544,4.51-1.544C283.357,127.5,280.34,127.973,278.674,128.209Z"/>
    <path id="Shape_3_copy_100" data-name="Shape 3 copy 100" class="cls-22" d="M265.365,121.572c-0.615-1.062-.391-4.526,4.3-6.757,3.216-1.528,7.86-.27,8.652,0-0.157,1.116-2.249,5.588-4.793,7.163-3.913,2.422-6.96,1.569-7.723.319,1.235-.918,3.918-2.715,3.918-2.715C269.677,119.612,266.9,120.89,265.365,121.572Z"/>
    <path id="Shape_3_copy_27" data-name="Shape 3 copy 27" class="cls-23" d="M268.77,89.333c-0.953-.772-1.983-4.087,1.606-7.849,2.457-2.576,7.244-3.06,8.078-3.1,0.252,1.1-.1,6.023-1.917,8.4-2.789,3.66-5.94,3.953-7.1,3.057,0.826-1.3,2.69-3.936,2.69-3.936C272.1,85.961,269.962,88.146,268.77,89.333Z"/>
    <path id="Shape_3_copy_98" data-name="Shape 3 copy 98" class="cls-24" d="M255.865,98.537c-1.222-.1-3.943-2.254-3.105-7.386,0.574-3.514,4.252-6.615,4.92-7.116,0.829,0.764,3.315,5.03,3.162,8.018-0.237,4.6-2.672,6.616-4.134,6.531-0.052-1.538,0-4.767,0-4.767C256.708,93.876,256.18,96.885,255.865,98.537Z"/>
    <path id="Shape_3_copy_2" data-name="Shape 3 copy 2" class="cls-25" d="M247.677,55.674c-0.366-1.17.614-4.5,5.686-5.644,3.473-.783,7.726,1.467,8.441,1.9-0.4,1.054-3.424,4.956-6.252,5.932-4.351,1.5-7.135,0-7.6-1.389,1.407-.623,4.42-1.786,4.42-1.786C252.314,54.711,249.327,55.347,247.677,55.674Z"/>
    <path id="Shape_3_copy_26" data-name="Shape 3 copy 26" class="cls-26" d="M253.144,80.6c-1.024-.676-2.37-3.875.837-7.968,2.2-2.8,6.913-3.748,7.74-3.865,0.358,1.068.482,6-1.093,8.549-2.421,3.914-5.529,4.51-6.769,3.731,0.7-1.372,2.295-4.178,2.295-4.178C256.128,76.926,254.216,79.308,253.144,80.6Z"/>
    <path id="Shape_3_copy_35" data-name="Shape 3 copy 35" class="cls-25" d="M211.258,87.323c-0.667-1.029-.619-4.5,3.958-6.966,3.134-1.689,7.836-.666,8.64-0.442-0.1,1.122-1.963,5.695-4.424,7.4-3.786,2.617-6.873,1.919-7.7.709,1.187-.979,3.775-2.909,3.775-2.909C215.466,85.147,212.76,86.564,211.258,87.323Z"/>
    <path id="Shape_3_copy_96" data-name="Shape 3 copy 96" class="cls-27" d="M230.859,91.123c-1.222-.1-3.939-2.263-3.09-7.392,0.581-3.512,4.266-6.607,4.935-7.106,0.827,0.766,3.3,5.037,3.145,8.024-0.246,4.6-2.686,6.61-4.147,6.523-0.049-1.538.007-4.767,0.007-4.767C231.712,86.464,231.177,89.472,230.859,91.123Z"/>
    <path id="Shape_3_copy_97" data-name="Shape 3 copy 97" class="cls-28" d="M236.707,69.529c0.81-.92,4.165-1.811,7.775,1.931,2.472,2.562,2.757,7.365,2.758,8.2-1.107.206-6.013-.353-8.316-2.264-3.541-2.939-3.7-6.1-2.76-7.22,1.264,0.879,3.821,2.85,3.821,2.85C239.937,72.994,237.842,70.77,236.707,69.529Z"/>
    <path id="Shape_3_copy_48" data-name="Shape 3 copy 48" class="cls-29" d="M234.9,103.379c-0.667-1.029-.619-4.5,3.958-6.966,3.134-1.689,7.836-.666,8.64-0.442-0.1,1.122-1.963,5.695-4.425,7.4-3.786,2.617-6.872,1.919-7.7.709,1.188-.979,3.776-2.91,3.776-2.91C239.1,101.2,236.4,102.62,234.9,103.379Z"/>
    <path id="Shape_3_copy_22" data-name="Shape 3 copy 22" class="cls-25" d="M243.079,49.011c-1.165-.385-3.3-3.121-1.275-7.91,1.387-3.279,5.694-5.425,6.462-5.754,0.624,0.938,2.034,5.67,1.179,8.537-1.314,4.411-4.158,5.8-5.558,5.371,0.313-1.507,1.123-4.633,1.123-4.633C245,44.68,243.775,47.479,243.079,49.011Z"/>
    <path id="Shape_3_copy_23" data-name="Shape 3 copy 23" class="cls-25" d="M220.588,46.708c-0.883-.851-1.622-4.243,2.277-7.681,2.671-2.355,7.481-2.424,8.316-2.387,0.156,1.116-.623,5.991-2.635,8.206-3.095,3.406-6.259,3.425-7.336,2.434,0.935-1.222,3.019-3.689,3.019-3.689C224.193,43.637,221.879,45.629,220.588,46.708Z"/>
    <path id="Shape_3_copy_87" data-name="Shape 3 copy 87" class="cls-25" d="M238.266,58.059c-1.063.611-4.526,0.375-6.742-4.328-1.517-3.221-.243-7.86.025-8.651,1.115,0.161,5.581,2.268,7.146,4.817,2.409,3.922,1.546,6.966.293,7.724-0.914-1.238-2.7-3.927-2.7-3.927C236.321,53.74,237.59,56.519,238.266,58.059Z"/>
    <path id="Shape_3_copy_24" data-name="Shape 3 copy 24" class="cls-25" d="M208.945,66.737c-1.149-.429-3.178-3.245-0.971-7.953,1.512-3.223,5.9-5.2,6.677-5.5,0.588,0.961,1.815,5.744.852,8.576-1.482,4.357-4.377,5.635-5.76,5.154,0.37-1.494,1.3-4.586,1.3-4.586C211.029,62.484,209.7,65.233,208.945,66.737Z"/>
    <path id="Shape_3_copy_47" data-name="Shape 3 copy 47" class="cls-30" d="M204.568,107.839c-0.667-1.029-.619-4.5,3.958-6.966,3.134-1.688,7.836-.666,8.64-0.442-0.1,1.123-1.963,5.7-4.425,7.4-3.786,2.617-6.872,1.919-7.7.709,1.188-.979,3.776-2.909,3.776-2.909C208.775,105.664,206.069,107.081,204.568,107.839Z"/>
    <path id="Shape_3_copy_25" data-name="Shape 3 copy 25" class="cls-25" d="M221.579,67.307c-1.036-.656-2.443-3.829.684-7.982,2.142-2.844,6.84-3.88,7.665-4.012,0.378,1.061.6,5.994-.929,8.568-2.346,3.959-5.441,4.615-6.7,3.861,0.669-1.386,2.214-4.221,2.214-4.221C224.492,63.572,222.626,65.99,221.579,67.307Z"/>
    <path id="Shape_3_copy_3" data-name="Shape 3 copy 3" class="cls-31" d="M272.348,131.157c1.213-.183,4.355,1.292,4.713,6.479,0.246,3.551-2.624,7.413-3.161,8.053-0.981-.554-4.378-4.138-4.912-7.082-0.822-4.528,1.086-7.051,2.529-7.3,0.4,1.485,1.093,4.639,1.093,4.639C272.594,135.887,272.42,132.838,272.348,131.157Z"/>
    <path id="Shape_3_copy_103" data-name="Shape 3 copy 103" class="cls-32" d="M254.393,134.239c-0.332-1.18.742-4.481,5.844-5.481,3.494-.684,7.681,1.685,8.383,2.138-0.428,1.042-3.562,4.857-6.417,5.753-4.391,1.378-7.132-.2-7.561-1.6,1.424-.584,4.468-1.661,4.468-1.661C259.056,133.408,256.052,133.959,254.393,134.239Z"/>
    <path id="Shape_3_copy_28" data-name="Shape 3 copy 28" class="cls-33" d="M238.753,120.648c0.453-1.14,3.312-3.108,7.971-.8,3.191,1.58,5.077,6.006,5.359,6.792-0.973.568-5.781,1.693-8.592,0.67-4.325-1.575-5.541-4.5-5.031-5.868,1.485,0.4,4.557,1.4,4.557,1.4C242.961,122.821,240.24,121.434,238.753,120.648Z"/>
    <path id="Shape_3_copy_34" data-name="Shape 3 copy 34" class="cls-34" d="M222.25,141.164c0.453-1.139,3.312-3.108,7.972-.8,3.19,1.579,5.076,6.006,5.359,6.792-0.974.567-5.781,1.693-8.593,0.669-4.324-1.574-5.541-4.5-5.031-5.868,1.486,0.4,4.558,1.4,4.558,1.4C226.458,143.338,223.737,141.95,222.25,141.164Z"/>
    <path id="Shape_3_copy_104" data-name="Shape 3 copy 104" class="cls-35" d="M241.09,153.505c-1.088-.566-2.76-3.608,0-8.012,1.892-3.016,6.486-4.448,7.3-4.65,0.467,1.026,1.1,5.922-.2,8.617-2,4.144-5.029,5.061-6.344,4.415,0.549-1.437,1.848-4.394,1.848-4.394C243.675,149.536,242.021,152.1,241.09,153.505Z"/>
    <path id="Shape_3_copy_105" data-name="Shape 3 copy 105" class="cls-36" d="M258.038,151.275c-1.088-.566-2.759-3.608,0-8.012,1.892-3.016,6.485-4.448,7.3-4.65,0.467,1.026,1.1,5.922-.2,8.617-2,4.144-5.03,5.061-6.344,4.415,0.549-1.437,1.847-4.394,1.847-4.394C260.624,147.306,258.97,149.874,258.038,151.275Z"/>
    <path id="Shape_3_copy_102" data-name="Shape 3 copy 102" class="cls-37" d="M217.036,138.682c-1.224.068-4.214-1.7-4.082-6.894,0.091-3.559,3.312-7.133,3.906-7.72,0.925,0.644,3.969,4.532,4.224,7.513,0.391,4.586-1.747,6.918-3.207,7.033-0.26-1.516-.651-4.722-0.651-4.722C217.237,133.95,217.123,137,217.036,138.682Z"/>
    <path id="Shape_3_copy_50" data-name="Shape 3 copy 50" class="cls-38" d="M186.123,145.625c0.453-1.14,3.312-3.109,7.972-.8,3.19,1.58,5.076,6.006,5.358,6.792-0.973.567-5.78,1.693-8.592,0.67-4.324-1.575-5.541-4.5-5.031-5.869,1.486,0.4,4.558,1.4,4.558,1.4C190.331,147.8,187.61,146.41,186.123,145.625Z"/>
    <path id="Shape_3_copy_114" data-name="Shape 3 copy 114" class="cls-39" d="M206.918,145.853c-0.993.72-4.461,0.853-7.163-3.589-1.85-3.041-1.075-7.79-.893-8.605,1.126,0.042,5.79,1.663,7.617,4.032,2.811,3.645,2.275,6.763,1.11,7.65-1.04-1.135-3.1-3.619-3.1-3.619C204.526,141.765,206.082,144.393,206.918,145.853Z"/>
    <path id="Shape_3_copy_33" data-name="Shape 3 copy 33" class="cls-40" d="M224.83,133.477c-1.086-.571-2.742-3.621.043-8.012,1.908-3.006,6.508-4.414,7.32-4.612,0.461,1.028,1.074,5.927-.241,8.615-2.022,4.134-5.055,5.036-6.366,4.384,0.557-1.435,1.87-4.385,1.87-4.385C227.435,129.522,225.768,132.081,224.83,133.477Z"/>
    <path id="Shape_3_copy_49" data-name="Shape 3 copy 49" class="cls-41" d="M202.857,120.666c1-.708,4.471-0.8,7.121,3.673,1.814,3.063.983,7.8,0.791,8.615-1.125-.055-5.77-1.731-7.569-4.122-2.768-3.677-2.195-6.789-1.02-7.662,1.027,1.147,3.06,3.655,3.06,3.655C205.2,124.782,203.676,122.136,202.857,120.666Z"/>
    <path id="Shape_3_copy_4" data-name="Shape 3 copy 4" class="cls-42" d="M266.917,179.035c0.225-1.2,2.649-3.689,7.667-2.326,3.435,0.934,6.141,4.913,6.57,5.629-0.846.745-5.346,2.778-8.3,2.317-4.547-.71-6.3-3.341-6.069-4.786,1.535,0.107,4.741.49,4.741,0.49C271.466,180.355,268.528,179.519,266.917,179.035Z"/>
    <path id="Shape_3_copy_111" data-name="Shape 3 copy 111" class="cls-43" d="M248.556,180.055c1.053-.628,4.52-0.45,6.812,4.217,1.57,3.2.372,7.855,0.118,8.65-1.118-.142-5.617-2.176-7.225-4.7-2.472-3.882-1.659-6.939-.419-7.718,0.934,1.223,2.766,3.882,2.766,3.882C250.572,184.341,249.258,181.584,248.556,180.055Z"/>
    <path id="Shape_3_copy_31" data-name="Shape 3 copy 31" class="cls-44" d="M243.356,170.1c-0.681-1.02-.682-4.491,3.86-7.021,3.111-1.732,7.826-.776,8.634-0.562-0.085,1.123-1.884,5.721-4.321,7.457-3.75,2.669-6.845,2.014-7.687.816,1.174-1,3.735-2.962,3.735-2.962C247.533,167.864,244.847,169.318,243.356,170.1Z"/>
    <path id="Shape_3_copy_108" data-name="Shape 3 copy 108" class="cls-45" d="M257.283,175.033c-1.046-.64-2.5-3.79.558-7.992,2.1-2.878,6.778-3.988,7.6-4.133,0.395,1.055.691,5.984-.794,8.582-2.283,4-5.368,4.7-6.634,3.965,0.647-1.4,2.147-4.255,2.147-4.255C260.137,171.253,258.309,173.7,257.283,175.033Z"/>
    <path id="Shape_3_copy_5" data-name="Shape 3 copy 5" class="cls-46" d="M216.615,174.422c-0.329-1.181.755-4.479,5.861-5.462,3.5-.673,7.676,1.709,8.376,2.164-0.431,1.041-3.577,4.846-6.435,5.733-4.4,1.364-7.132-.226-7.556-1.627,1.426-.579,4.473-1.646,4.473-1.646C221.28,173.606,218.274,174.148,216.615,174.422Z"/>
    <path id="Shape_3_copy_112" data-name="Shape 3 copy 112" class="cls-47" d="M238.126,173.607c1.156,0.406,3.241,3.182,1.126,7.932-1.447,3.253-5.793,5.318-6.566,5.633-0.607-.95-1.929-5.707-1.021-8.558,1.4-4.386,4.265-5.72,5.657-5.267-0.341,1.5-1.209,4.611-1.209,4.611C236.126,177.9,237.4,175.125,238.126,173.607Z"/>
    <path id="Shape_3_copy_51" data-name="Shape 3 copy 51" class="cls-48" d="M196.926,165.959c0.642-1.045,3.8-2.492,7.99.583,2.871,2.1,3.967,6.79,4.11,7.613-1.057.391-5.987,0.672-8.58-.82-3.989-2.3-4.684-5.382-3.945-6.647,1.394,0.652,4.249,2.161,4.249,2.161C200.7,168.824,198.255,166.989,196.926,165.959Z"/>
    <path id="Shape_3_copy_32" data-name="Shape 3 copy 32" class="cls-49" d="M211.913,179.95c1.023-.677,4.494-0.662,7,3.892,1.718,3.118.74,7.829,0.523,8.636-1.123-.09-5.713-1.91-7.437-4.355-2.652-3.762-1.983-6.854-.781-7.69,0.99,1.178,2.945,3.748,2.945,3.748C214.128,184.137,212.686,181.444,211.913,179.95Z"/>
    <path id="Shape_3_copy_57" data-name="Shape 3 copy 57" class="cls-50" d="M187.632,168.7c1.214,0.175,3.794,2.5,2.636,7.565-0.793,3.471-4.659,6.336-5.357,6.794-0.779-.815-2.993-5.228-2.652-8.2,0.524-4.572,3.081-6.435,4.535-6.259-0.045,1.538-.3,4.758-0.3,4.758C186.5,173.3,187.214,170.332,187.632,168.7Z"/>
    <path id="Shape_3_copy_113" data-name="Shape 3 copy 113" class="cls-51" d="M197.923,180.2c1.226,0.029,4.065,2.026,3.521,7.2-0.373,3.54-3.868,6.847-4.507,7.384-0.871-.715-3.6-4.832-3.613-7.824-0.026-4.6,2.291-6.758,3.755-6.756,0.139,1.532.273,4.759,0.273,4.759C197.347,184.9,197.7,181.869,197.923,180.2Z"/>
    <path id="Shape_3_copy_6" data-name="Shape 3 copy 6" class="cls-25" d="M69.32,136.548c0.4,1.159-.479,4.517-5.514,5.813-3.448.887-7.767-1.233-8.494-1.644,0.367-1.066,3.272-5.058,6.07-6.118,4.3-1.632,7.132-.214,7.642,1.158-1.388.666-4.364,1.919-4.364,1.919C64.713,137.65,67.68,136.924,69.32,136.548Z"/>
    <path id="Shape_3_copy_54" data-name="Shape 3 copy 54" class="cls-25" d="M73.2,178.875c0.88,0.853,1.61,4.247-2.3,7.674-2.677,2.347-7.488,2.4-8.322,2.363-0.153-1.116.64-5.989,2.659-8.2,3.1-3.4,6.269-3.407,7.344-2.412-0.938,1.22-3.03,3.68-3.03,3.68C69.587,181.936,71.908,179.95,73.2,178.875Z"/>
    <path id="Shape_3_copy_55" data-name="Shape 3 copy 55" class="cls-25" d="M83.444,183.908c1.218,0.139,3.868,2.381,2.864,7.483-0.687,3.493-4.464,6.474-5.149,6.952-0.8-.79-3.15-5.134-2.9-8.116,0.385-4.586,2.885-6.526,4.343-6.394,0,1.539-.153,4.765-0.153,4.765C82.451,188.539,83.076,185.55,83.444,183.908Z"/>
    <path id="Shape_3_copy_56" data-name="Shape 3 copy 56" class="cls-25" d="M130.409,168.026c1.194,0.278,3.569,2.809,1.987,7.762-1.084,3.391-5.178,5.919-5.912,6.316-0.707-.878-2.541-5.462-1.95-8.4,0.909-4.512,3.615-6.152,5.048-5.854-0.175,1.529-.7,4.716-0.7,4.716C128.89,172.513,129.855,169.615,130.409,168.026Z"/>
    <path id="Shape_3_copy_94" data-name="Shape 3 copy 94" class="cls-25" d="M112.308,173.351c1.189-.3,4.462.854,5.333,5.98,0.6,3.509-1.876,7.637-2.347,8.327-1.031-.454-4.767-3.683-5.59-6.559-1.268-4.425.381-7.125,1.792-7.519,0.547,1.438,1.548,4.508,1.548,4.508C113.022,178.034,112.546,175.017,112.308,173.351Z"/>
    <path id="Shape_3_copy_95" data-name="Shape 3 copy 95" class="cls-25" d="M100.079,178.16c1.222-.109,4.269,1.554,4.312,6.753,0.03,3.56-3.069,7.24-3.643,7.847-0.946-.613-4.119-4.4-4.474-7.366-0.546-4.57,1.512-6.973,2.967-7.138,0.311,1.507.81,4.7,0.81,4.7C100.038,182.9,100.049,179.842,100.079,178.16Z"/>
    <path id="Shape_3_copy_91" data-name="Shape 3 copy 91" class="cls-25" d="M94.728,157.322c1.194,0.277,3.569,2.809,1.987,7.761-1.084,3.392-5.177,5.92-5.912,6.316-0.707-.877-2.54-5.462-1.949-8.4,0.909-4.511,3.615-6.151,5.048-5.853-0.175,1.529-.7,4.715-0.7,4.715C93.209,161.808,94.174,158.91,94.728,157.322Z"/>
    <path id="Shape_3_copy_92" data-name="Shape 3 copy 92" class="cls-25" d="M85.147,156.122c0.875,0.859,1.585,4.257-2.344,7.661-2.691,2.332-7.5,2.359-8.336,2.315-0.147-1.117.675-5.986,2.706-8.182,3.125-3.379,6.289-3.371,7.357-2.37-0.945,1.214-3.051,3.663-3.051,3.663C81.515,159.162,83.847,157.19,85.147,156.122Z"/>
    <path id="Shape_3_copy_36" data-name="Shape 3 copy 36" class="cls-25" d="M93.272,134.719c0.88,0.854,1.61,4.248-2.3,7.675-2.677,2.347-7.488,2.4-8.322,2.363-0.153-1.116.64-5.99,2.659-8.2,3.105-3.4,6.269-3.407,7.344-2.412-0.938,1.219-3.03,3.68-3.03,3.68C89.658,137.78,91.979,135.795,93.272,134.719Z"/>
    <path id="Shape_3_copy_90" data-name="Shape 3 copy 90" class="cls-25" d="M111.918,150.349c0.081,1.224-1.652,4.231-6.85,4.155-3.56-.052-7.168-3.235-7.761-3.824,0.634-.931,4.489-4.016,7.467-4.3,4.582-.44,6.937,1.673,7.067,3.131-1.513.277-4.715,0.7-4.715,0.7C107.184,150.2,110.237,150.28,111.918,150.349Z"/>
    <path id="Shape_3_copy_68" data-name="Shape 3 copy 68" class="cls-25" d="M82.251,127.17c0.4,1.158-.47,4.518-5.5,5.823-3.446.894-7.769-1.219-8.5-1.628,0.365-1.066,3.263-5.064,6.059-6.13,4.3-1.64,7.131-.227,7.644,1.145-1.386.668-4.36,1.926-4.36,1.926C77.647,128.28,80.612,127.549,82.251,127.17Z"/>
    <path id="Shape_3_copy_53" data-name="Shape 3 copy 53" class="cls-25" d="M55.361,175.307c0.88,0.853,1.61,4.247-2.3,7.674-2.677,2.347-7.488,2.4-8.323,2.363-0.153-1.116.64-5.989,2.659-8.2,3.1-3.4,6.269-3.407,7.343-2.412-0.938,1.22-3.03,3.68-3.03,3.68C51.747,178.368,54.067,176.382,55.361,175.307Z"/>
    <path id="Shape_3_copy_93" data-name="Shape 3 copy 93" class="cls-25" d="M65.2,170.609c-0.974.745-4.438,0.966-7.252-3.406-1.927-2.994-1.272-7.761-1.11-8.58,1.127,0.013,5.83,1.516,7.717,3.838,2.9,3.572,2.446,6.7,1.3,7.619-1.068-1.108-3.193-3.539-3.193-3.539C62.707,166.583,64.329,169.171,65.2,170.609Z"/>
    <path id="Shape_3_copy_52" data-name="Shape 3 copy 52" class="cls-25" d="M75.543,151.4c-0.133,1.219-2.362,3.88-7.468,2.9-3.5-.67-6.5-4.432-6.978-5.114,0.786-.807,5.119-3.176,8.1-2.94,4.588,0.362,6.54,2.852,6.415,4.311-1.539.009-4.765-.129-4.765-0.129C70.907,150.433,73.9,151.044,75.543,151.4Z"/>
    <path id="Shape_3_copy_7" data-name="Shape 3 copy 7" class="cls-25" d="M27.084,137.549c0.707,1,.8,4.472-3.679,7.118-3.065,1.811-7.8.976-8.616,0.783,0.056-1.125,1.736-5.768,4.129-7.565,3.679-2.765,6.791-2.189,7.663-1.013-1.148,1.025-3.658,3.057-3.658,3.057C22.966,139.889,25.613,138.367,27.084,137.549Z"/>
    <path id="Shape_3_copy_37" data-name="Shape 3 copy 37" class="cls-25" d="M34.817,131.377c-0.419,1.153-3.217,3.207-7.944,1.042-3.237-1.483-5.255-5.85-5.561-6.628,0.956-.6,5.727-1.866,8.568-0.928,4.37,1.443,5.674,4.327,5.205,5.714-1.5-.357-4.6-1.259-4.6-1.259C30.545,129.331,33.306,130.637,34.817,131.377Z"/>
    <path id="Shape_3_copy_65" data-name="Shape 3 copy 65" class="cls-25" d="M44.446,134.459c0.99,0.723,2.184,3.982-1.212,7.919-2.325,2.7-7.082,3.419-7.914,3.5-0.307-1.084-.2-6.02,1.494-8.488,2.6-3.795,5.735-4.244,6.937-3.408-0.76,1.338-2.489,4.065-2.489,4.065C41.292,137.992,43.314,135.7,44.446,134.459Z"/>
    <path id="Shape_3_copy_66" data-name="Shape 3 copy 66" class="cls-25" d="M52.958,125.5c-0.487,1.126-3.4,3.01-7.992.567-3.143-1.673-4.9-6.153-5.157-6.947,0.99-.538,5.828-1.522,8.608-0.416,4.276,1.7,5.406,4.656,4.856,6.013-1.473-.445-4.514-1.53-4.514-1.53C48.816,123.2,51.495,124.668,52.958,125.5Z"/>
    <path id="Shape_3_copy_8" data-name="Shape 3 copy 8" class="cls-25" d="M24.657,104.584c-0.756.965-4.054,2.048-7.874-1.479-2.616-2.415-3.178-7.193-3.227-8.027,1.094-.27,6.024.005,8.433,1.78,3.705,2.73,4.048,5.875,3.172,7.049-1.312-.8-3.979-2.625-3.979-2.625C21.232,101.312,23.451,103.41,24.657,104.584Z"/>
    <path id="Shape_3_copy_38" data-name="Shape 3 copy 38" class="cls-25" d="M33.722,103.608c-1.175.353-4.493-.664-5.58-5.749-0.744-3.482,1.553-7.709,1.994-8.419,1.049,0.41,4.918,3.478,5.862,6.318,1.453,4.367-.081,7.135-1.473,7.588-0.608-1.414-1.737-4.439-1.737-4.439C32.811,98.96,33.414,101.955,33.722,103.608Z"/>
    <path id="Shape_3_copy_69" data-name="Shape 3 copy 69" class="cls-25" d="M48.886,108.515c-1.175.352-4.493-.665-5.58-5.75-0.744-3.481,1.553-7.709,1.993-8.418,1.049,0.41,4.918,3.478,5.862,6.317,1.453,4.367-.081,7.135-1.474,7.588-0.608-1.414-1.737-4.439-1.737-4.439C47.975,103.867,48.578,106.861,48.886,108.515Z"/>
    <path id="Shape_3_copy_9" data-name="Shape 3 copy 9" class="cls-25" d="M59.521,85.481c-0.075,1.224-2.177,3.986-7.324,3.248-3.524-.505-6.7-4.122-7.21-4.781,0.748-.843,4.964-3.412,7.955-3.317,4.6,0.147,6.667,2.542,6.61,4.006-1.537.081-4.766,0.095-4.766,0.095C54.845,84.728,57.863,85.2,59.521,85.481Z"/>
    <path id="Shape_3_copy_39" data-name="Shape 3 copy 39" class="cls-25" d="M72.053,96.337c-0.024,1.226-2.008,4.075-7.181,3.554-3.542-.357-6.865-3.837-7.405-4.474,0.712-.873,4.816-3.618,7.808-3.648,4.6-.047,6.768,2.26,6.773,3.724-1.532.146-4.758,0.3-4.758,0.3C67.349,95.782,70.384,96.125,72.053,96.337Z"/>
    <path id="Shape_3_copy_70" data-name="Shape 3 copy 70" class="cls-25" d="M85.514,98.675c-1.225-.052-4.027-2.1-3.387-7.261,0.438-3.533,3.994-6.774,4.643-7.3,0.857,0.732,3.506,4.9,3.467,7.89-0.059,4.6-2.415,6.714-3.879,6.685-0.111-1.535-.186-4.763-0.186-4.763C86.177,93.986,85.765,97.012,85.514,98.675Z"/>
    <path id="Shape_3_copy_43" data-name="Shape 3 copy 43" class="cls-25" d="M80.233,102.173c0.5,1.118-.07,4.542-4.967,6.286-3.354,1.195-7.846-.528-8.607-0.871,0.269-1.095,2.8-5.332,5.494-6.641,4.139-2.013,7.084-.856,7.715.465-1.322.788-4.173,2.3-4.173,2.3C75.745,103.686,78.634,102.7,80.233,102.173Z"/>
    <path id="Shape_3_copy_67" data-name="Shape 3 copy 67" class="cls-25" d="M36.97,112.431c0.5,1.118-.069,4.542-4.967,6.287-3.354,1.194-7.846-.528-8.607-0.872,0.269-1.094,2.8-5.332,5.494-6.641,4.139-2.013,7.084-.856,7.715.465-1.322.788-4.173,2.3-4.173,2.3C32.481,113.944,35.371,112.954,36.97,112.431Z"/>
    <path id="Shape_3_copy_63" data-name="Shape 3 copy 63" class="cls-25" d="M108.5,131.282c-0.859.875-4.257,1.584-7.66-2.346-2.331-2.691-2.357-7.5-2.313-8.337,1.117-.146,5.985.676,8.182,2.708,3.378,3.126,3.369,6.29,2.367,7.358-1.214-.945-3.661-3.051-3.661-3.051C105.458,127.649,107.43,129.982,108.5,131.282Z"/>
    <path id="Shape_3_copy_89" data-name="Shape 3 copy 89" class="cls-25" d="M102.841,106.062c-0.3,1.189-2.869,3.521-7.794,1.855-3.372-1.141-5.831-5.277-6.215-6.019,0.889-.692,5.5-2.447,8.427-1.807,4.5,0.985,6.09,3.719,5.767,5.147-1.526-.2-4.7-0.778-4.7-0.778C98.381,104.467,101.262,105.481,102.841,106.062Z"/>
    <path id="Shape_3_copy_74" data-name="Shape 3 copy 74" class="cls-25" d="M85.631,117.65c-0.624-1.056-.432-4.522,4.244-6.8,3.2-1.557,7.857-.341,8.651-0.083-0.147,1.117-2.2,5.609-4.728,7.206-3.891,2.457-6.946,1.632-7.72.389,1.227-.929,3.893-2.75,3.893-2.75C89.925,115.651,87.163,116.954,85.631,117.65Z"/>
    <path id="Shape_3_copy_10" data-name="Shape 3 copy 10" class="cls-25" d="M63.171,66.021c0.116,1.221-1.531,4.276-6.73,4.347-3.56.049-7.256-3.031-7.866-3.6,0.608-.949,4.374-4.142,7.343-4.513,4.567-.57,6.981,1.476,7.153,2.93-1.505.319-4.693,0.834-4.693,0.834C58.434,66,61.489,66,63.171,66.021Z"/>
    <path id="Shape_3_copy_40" data-name="Shape 3 copy 40" class="cls-25" d="M78.781,76.726C78.9,77.946,77.25,81,72.051,81.073c-3.56.049-7.256-3.031-7.866-3.6,0.608-.949,4.374-4.142,7.343-4.513,4.567-.57,6.981,1.476,7.153,2.93-1.505.319-4.693,0.834-4.693,0.834C74.045,76.709,77.1,76.7,78.781,76.726Z"/>
    <path id="Shape_3_copy_11" data-name="Shape 3 copy 11" class="cls-25" d="M107.688,41.627c-1.042.646-4.511,0.528-6.884-4.1-1.626-3.168-.509-7.848-0.268-8.647,1.12,0.123,5.654,2.078,7.3,4.573,2.54,3.838,1.78,6.909.553,7.71-0.954-1.207-2.832-3.834-2.832-3.834C105.6,37.376,106.96,40.11,107.688,41.627Z"/>
    <path id="Shape_3_copy_41" data-name="Shape 3 copy 41" class="cls-25" d="M107.725,47.538c0.508,1.116-.052,4.542-4.942,6.306-3.349,1.208-7.849-.5-8.611-0.837,0.265-1.1,2.782-5.343,5.467-6.663,4.13-2.03,7.08-.884,7.717.434-1.319.793-4.164,2.321-4.164,2.321C103.242,49.069,106.128,48.067,107.725,47.538Z"/>
    <path id="Shape_3_copy_71" data-name="Shape 3 copy 71" class="cls-25" d="M74.644,67.174c-1.18.335-4.483-.73-5.5-5.83-0.693-3.492,1.665-7.686,2.116-8.389,1.043,0.425,4.867,3.55,5.77,6.4,1.389,4.388-.185,7.133-1.584,7.566-0.587-1.422-1.672-4.464-1.672-4.464C73.8,62.513,74.36,65.516,74.644,67.174Z"/>
    <path id="Shape_3_copy_12" data-name="Shape 3 copy 12" class="cls-25" d="M153.766,24.464c-0.878.856-4.291,1.488-7.606-2.518-2.269-2.743-2.187-7.554-2.125-8.386,1.12-.121,5.969.81,8.119,2.891,3.308,3.2,3.227,6.364,2.2,7.409-1.192-.973-3.592-3.133-3.592-3.133C150.809,20.764,152.728,23.14,153.766,24.464Z"/>
    <path id="Shape_3_copy_81" data-name="Shape 3 copy 81" class="cls-25" d="M148.094,34.345c-0.543,1.1-3.551,2.832-8.01.158-3.053-1.831-4.578-6.394-4.8-7.2,1.016-.487,5.9-1.223,8.619.023,4.184,1.917,5.161,4.926,4.543,6.254-1.449-.52-4.431-1.759-4.431-1.759C144.074,31.841,146.675,33.443,148.094,34.345Z"/>
    <path id="Shape_3_copy_42" data-name="Shape 3 copy 42" class="cls-25" d="M139.048,60.592c-0.879.855-4.292,1.488-7.606-2.518-2.27-2.743-2.188-7.554-2.125-8.387,1.12-.121,5.969.81,8.119,2.891,3.307,3.2,3.227,6.364,2.2,7.409-1.193-.973-3.593-3.133-3.593-3.133C136.091,56.891,138.01,59.268,139.048,60.592Z"/>
    <path id="Shape_3_copy_80" data-name="Shape 3 copy 80" class="cls-25" d="M140.327,45.808c-0.955.769-4.413,1.075-7.333-3.226-2-2.945-1.464-7.727-1.322-8.55,1.126-.015,5.865,1.371,7.809,3.646,2.989,3.5,2.61,6.64,1.491,7.584-1.095-1.081-3.28-3.459-3.28-3.459C137.734,41.845,139.419,44.392,140.327,45.808Z"/>
    <path id="Shape_3_copy_78" data-name="Shape 3 copy 78" class="cls-25" d="M119.73,47.523c-1.19-.3-3.526-2.864-1.867-7.791,1.136-3.374,5.269-5.838,6.01-6.224,0.693,0.888,2.455,5.5,1.819,8.424-0.979,4.5-3.71,6.095-5.138,5.774,0.2-1.526.771-4.7,0.771-4.7C121.318,43.061,120.308,45.944,119.73,47.523Z"/>
    <path id="Shape_3_copy_79" data-name="Shape 3 copy 79" class="cls-25" d="M122.231,59.661c-0.248,1.2-2.721,3.637-7.711,2.175-3.417-1-6.044-5.032-6.458-5.757,0.86-.728,5.4-2.672,8.345-2.153,4.532,0.8,6.238,3.464,5.974,4.9-1.532-.138-4.731-0.583-4.731-0.583C117.709,58.253,120.629,59.146,122.231,59.661Z"/>
    <path id="Shape_3_copy_44" data-name="Shape 3 copy 44" class="cls-25" d="M117.639,74.418c-0.878.855-4.291,1.488-7.606-2.518-2.269-2.743-2.188-7.554-2.125-8.386,1.12-.121,5.969.81,8.119,2.891,3.307,3.2,3.227,6.364,2.2,7.409-1.192-.973-3.592-3.133-3.592-3.133C114.682,70.718,116.6,73.094,117.639,74.418Z"/>
    <path id="Shape_3_copy_72" data-name="Shape 3 copy 72" class="cls-25" d="M89.274,73.23c-1.2.256-4.425-1.026-5.1-6.181-0.46-3.53,2.171-7.559,2.668-8.23,1.013,0.494,4.621,3.865,5.332,6.771,1.095,4.47-.657,7.1-2.082,7.444-0.491-1.458-1.372-4.565-1.372-4.565C88.742,68.523,89.1,71.556,89.274,73.23Z"/>
    <path id="Shape_3_copy_73" data-name="Shape 3 copy 73" class="cls-25" d="M99.518,77.1c-1.21-.2-3.745-2.57-2.489-7.615,0.86-3.455,4.78-6.245,5.487-6.688,0.763,0.829,2.891,5.285,2.493,8.25-0.612,4.561-3.2,6.375-4.655,6.17,0.075-1.537.389-4.751,0.389-4.751C100.74,72.52,99.967,75.475,99.518,77.1Z"/>
    <path id="Shape_3_copy_13" data-name="Shape 3 copy 13" class="cls-25" d="M190.467,23.518c-1.166-.381-3.311-3.11-1.3-7.906,1.376-3.283,5.675-5.444,6.441-5.775,0.628,0.936,2.053,5.663,1.209,8.533-1.3,4.415-4.139,5.812-5.541,5.39,0.308-1.508,1.108-4.636,1.108-4.636C192.371,19.181,191.157,21.984,190.467,23.518Z"/>
    <path id="Shape_3_copy_82" data-name="Shape 3 copy 82" class="cls-25" d="M179.331,28.664c-1.173.358-4.5-.641-5.61-5.72-0.762-3.477,1.513-7.717,1.95-8.429,1.051,0.4,4.936,3.453,5.9,6.287,1.475,4.359-.044,7.135-1.434,7.6-0.615-1.411-1.76-4.43-1.76-4.43C178.4,24.021,179.014,27.012,179.331,28.664Z"/>
    <path id="Shape_3_copy_14" data-name="Shape 3 copy 14" class="cls-25" d="M198.941,32.438c-1.166-.381-3.31-3.11-1.3-7.905,1.376-3.283,5.675-5.444,6.442-5.775,0.627,0.936,2.053,5.663,1.208,8.533-1.3,4.415-4.139,5.812-5.541,5.39,0.308-1.508,1.108-4.636,1.108-4.636C200.846,28.1,199.632,30.9,198.941,32.438Z"/>
    <path id="Shape_3_copy_15" data-name="Shape 3 copy 15" class="cls-25" d="M175.748,83.284c-1.165-.381-3.31-3.11-1.3-7.905,1.376-3.284,5.675-5.444,6.442-5.775,0.627,0.936,2.053,5.663,1.208,8.533-1.3,4.415-4.138,5.812-5.54,5.389,0.308-1.508,1.107-4.636,1.107-4.636C177.653,78.947,176.439,81.75,175.748,83.284Z"/>
    <path id="Shape_3_copy_16" data-name="Shape 3 copy 16" class="cls-25" d="M187.168,70.307c-1.162-.395-3.274-3.149-1.208-7.92,1.414-3.267,5.739-5.377,6.509-5.7,0.617,0.943,1.986,5.687,1.108,8.547-1.352,4.4-4.207,5.763-5.6,5.324,0.326-1.5,1.162-4.623,1.162-4.623C189.123,65.993,187.876,68.781,187.168,70.307Z"/>
    <path id="Shape_3_copy_17" data-name="Shape 3 copy 17" class="cls-25" d="M175.011,64.348c-1.209.2-4.376-1.218-4.822-6.4-0.306-3.547,2.5-7.456,3.024-8.106,0.99,0.538,4.448,4.063,5.032,7,0.9,4.514-.967,7.069-2.405,7.346-0.427-1.478-1.172-4.621-1.172-4.621C174.685,59.622,174.911,62.668,175.011,64.348Z"/>
    <path id="Shape_3_copy_46" data-name="Shape 3 copy 46" class="cls-25" d="M170.842,132.791c-1.166-.381-3.31-3.11-1.3-7.905,1.376-3.284,5.675-5.444,6.442-5.775,0.627,0.935,2.053,5.663,1.208,8.533-1.3,4.415-4.138,5.812-5.54,5.389,0.308-1.507,1.107-4.636,1.107-4.636C172.747,128.455,171.533,131.257,170.842,132.791Z"/>
    <path id="Shape_3_copy_84" data-name="Shape 3 copy 84" class="cls-25" d="M184.582,119.309c-1.063.612-4.527,0.38-6.747-4.321-1.52-3.22-.25-7.861.017-8.652,1.115,0.16,5.583,2.262,7.151,4.81,2.412,3.92,1.552,6.965.3,7.724-0.915-1.237-2.706-3.925-2.706-3.925C182.633,114.992,183.9,117.769,184.582,119.309Z"/>
    <path id="Shape_3_copy_85" data-name="Shape 3 copy 85" class="cls-25" d="M188.945,100.02c-0.766.958-4.074,2.008-7.859-1.557-2.591-2.441-3.105-7.225-3.145-8.059,1.1-.259,6.023.066,8.414,1.865,3.677,2.767,3.989,5.916,3.1,7.08-1.3-.818-3.952-2.665-3.952-2.665C185.554,96.714,187.752,98.835,188.945,100.02Z"/>
    <path id="Shape_3_copy_58" data-name="Shape 3 copy 58" class="cls-25" d="M145.35,156.667c-1.183.324-4.476-.773-5.44-5.883-0.66-3.5,1.739-7.669,2.2-8.368,1.04,0.436,4.833,3.6,5.708,6.458,1.347,4.4-.253,7.13-1.656,7.55-0.573-1.429-1.629-4.48-1.629-4.48C144.551,152,145.082,155.006,145.35,156.667Z"/>
    <path id="Shape_3_copy_60" data-name="Shape 3 copy 60" class="cls-25" d="M122.593,145.168c-0.963-.759-2.035-4.061,1.5-7.869,2.424-2.608,7.2-3.153,8.038-3.2,0.266,1.095-.026,6.024-1.809,8.427-2.742,3.7-5.889,4.029-7.059,3.148,0.809-1.309,2.638-3.97,2.638-3.97C125.876,141.754,123.77,143.966,122.593,145.168Z"/>
    <path id="Shape_3_copy_62" data-name="Shape 3 copy 62" class="cls-25" d="M120.584,125.568c-1.2-.266-3.6-2.774-2.064-7.742,1.05-3.4,5.118-5.971,5.849-6.375,0.715,0.871,2.594,5.437,2.033,8.376-0.864,4.52-3.553,6.187-4.989,5.9,0.159-1.531.65-4.722,0.65-4.722C122.058,121.066,121.122,123.974,120.584,125.568Z"/>
    <path id="Shape_3_copy_59" data-name="Shape 3 copy 59" class="cls-25" d="M141.513,126.993c-1.166-.381-3.31-3.11-1.3-7.906,1.376-3.283,5.675-5.444,6.442-5.775,0.627,0.936,2.053,5.663,1.208,8.534-1.3,4.415-4.138,5.812-5.54,5.389,0.308-1.507,1.107-4.636,1.107-4.636C143.418,122.656,142.2,125.459,141.513,126.993Z"/>
    <path id="Shape_3_copy_61" data-name="Shape 3 copy 61" class="cls-25" d="M135.945,112.613c-1.166-.381-3.31-3.111-1.3-7.906,1.376-3.283,5.675-5.444,6.442-5.775,0.627,0.936,2.053,5.663,1.208,8.533-1.3,4.415-4.138,5.813-5.54,5.39,0.308-1.508,1.107-4.636,1.107-4.636C137.85,108.276,136.636,111.079,135.945,112.613Z"/>
    <path id="Shape_3_copy_77" data-name="Shape 3 copy 77" class="cls-25" d="M143.077,91.933c-0.72.992-3.976,2.2-7.923-1.189-2.7-2.317-3.439-7.072-3.519-7.9,1.083-.31,6.02-0.216,8.492,1.47,3.8,2.592,4.261,5.723,3.429,6.927-1.341-.756-4.073-2.477-4.073-2.477C139.534,88.789,141.829,90.8,143.077,91.933Z"/>
    <path id="Shape_3_copy_64" data-name="Shape 3 copy 64" class="cls-25" d="M129.087,105.977c-1.226.032-4.161-1.82-3.877-7.011,0.2-3.555,3.52-7.032,4.132-7.6,0.905,0.671,3.833,4.646,4,7.634,0.257,4.595-1.949,6.864-3.412,6.936-0.215-1.524-.511-4.739-0.511-4.739C129.427,101.253,129.224,104.3,129.087,105.977Z"/>
    <path id="Shape_3_copy_76" data-name="Shape 3 copy 76" class="cls-25" d="M123.287,81.262c-0.915-.816-1.787-4.176,1.975-7.765,2.576-2.457,7.38-2.715,8.215-2.711,0.2,1.109-.387,6.011-2.311,8.3-2.959,3.525-6.12,3.668-7.235,2.719C124.817,80.55,126.8,78,126.8,78,126.77,78.051,124.535,80.133,123.287,81.262Z"/>
    <path id="Shape_3_copy_75" data-name="Shape 3 copy 75" class="cls-25" d="M110.355,97.057c-1.226.032-4.162-1.82-3.877-7.011,0.194-3.555,3.52-7.032,4.131-7.6,0.905,0.671,3.834,4.646,4,7.634,0.257,4.595-1.949,6.864-3.411,6.936-0.216-1.524-.512-4.739-0.512-4.739C110.7,92.332,110.491,95.38,110.355,97.057Z"/>
    <path id="Shape_3_copy_18" data-name="Shape 3 copy 18" class="cls-25" d="M152.886,70.387c-0.865-.868-1.537-4.274,2.43-7.634,2.717-2.3,7.528-2.274,8.362-2.221,0.134,1.119-.742,5.978-2.8,8.152-3.162,3.344-6.326,3.3-7.383,2.287,0.959-1.2,3.091-3.628,3.091-3.628C156.552,67.388,154.2,69.334,152.886,70.387Z"/>
    <path id="Shape_3_copy_86" data-name="Shape 3 copy 86" class="cls-25" d="M149.584,50.71c0.1-1.222,2.267-3.936,7.4-3.082,3.512,0.585,6.6,4.273,7.1,4.943-0.767.826-5.04,3.3-8.028,3.136-4.595-.251-6.607-2.693-6.518-4.154,1.538-.047,4.767.013,4.767,0.013C154.243,51.568,151.236,51.03,149.584,50.71Z"/>
    <path id="Shape_3_copy_45" data-name="Shape 3 copy 45" class="cls-25" d="M161.476,103.8c-1.166-.381-3.311-3.11-1.3-7.905,1.376-3.284,5.675-5.444,6.442-5.775,0.627,0.936,2.053,5.663,1.208,8.533-1.3,4.415-4.139,5.812-5.541,5.39,0.308-1.508,1.108-4.637,1.108-4.637C163.381,99.464,162.167,102.266,161.476,103.8Z"/>
    <path id="Shape_3_copy_83" data-name="Shape 3 copy 83" class="cls-25" d="M155.561,83.542c-0.673-1.025-.643-4.5,3.921-6.987,3.125-1.705,7.832-.708,8.638-0.487-0.095,1.123-1.934,5.705-4.386,7.419-3.772,2.636-6.862,1.955-7.693.749,1.182-.985,3.76-2.929,3.76-2.929C159.757,81.345,157.058,82.776,155.561,83.542Z"/>
    <path id="Shape_3_copy_19" data-name="Shape 3 copy 19" class="cls-25" d="M160.15,36.567c-0.956-.768-2-4.079,1.576-7.855,2.448-2.585,7.233-3.088,8.067-3.126,0.256,1.1-.08,6.023-1.885,8.41-2.776,3.671-5.925,3.975-7.087,3.084,0.821-1.3,2.674-3.946,2.674-3.946C163.464,33.183,161.338,35.376,160.15,36.567Z"/>
    <path id="Shape_3_copy_20" data-name="Shape 3 copy 20" class="cls-25" d="M160.138,14.6c-1.166-.381-3.311-3.11-1.3-7.905,1.376-3.283,5.675-5.444,6.441-5.775,0.628,0.936,2.054,5.663,1.209,8.533-1.3,4.415-4.139,5.812-5.541,5.39,0.308-1.508,1.108-4.636,1.108-4.636C162.042,10.261,160.829,13.064,160.138,14.6Z"/>
    <path id="Shape_3_copy_21" data-name="Shape 3 copy 21" class="cls-25" d="M202.509,48.049c-1.166-.381-3.31-3.11-1.3-7.906,1.376-3.284,5.675-5.444,6.442-5.775,0.627,0.936,2.053,5.663,1.208,8.533-1.3,4.415-4.138,5.812-5.54,5.39,0.307-1.508,1.107-4.636,1.107-4.636C204.414,43.712,203.2,46.515,202.509,48.049Z"/>
    <path id="Shape_3_copy_88" data-name="Shape 3 copy 88" class="cls-25" d="M193.635,46.508c-0.65,1.04-3.814,2.468-7.987-.633-2.858-2.123-3.925-6.815-4.062-7.639,1.058-.385,5.99-0.635,8.574.873,3.974,2.32,4.65,5.411,3.9,6.671-1.39-.66-4.236-2.187-4.236-2.187C189.881,43.619,192.311,45.47,193.635,46.508Z"/>
  </g>
  <g id="field">
    <path id="Field_5" data-name="Field 5" class="cls-52" d="M202,269.97c27.188,3.118,100.75,26.916,118,40.491,16.75-15.616,15.75-20.638,21-25.424-6.25-3.375-10.75-6.749-16-9.417C307.439,271.564,237.143,268.168,202,269.97Z"/>
    <path id="Field_4" data-name="Field 4" class="cls-52" d="M198,270.992c21.75,19.713,38.5,61.2,48,96.008,23.5-9.733,60.75-37.034,66-46.519C270.75,292.437,241.98,282.418,198,270.992Z"/>
    <path id="Field_3" data-name="Field 3" class="cls-25" d="M195,270c15.5,19.084,32.5,49.618,35,102.554-14.5,9.127-73.75,16.512-98,9.957C144,336.129,166.5,295.722,195,270Z"/>
    <path id="Field_3_dark" data-name="Field 3 dark" class="cls-52" d="M195,270c15.5,19.084,32.5,49.618,35,102.554-12.5,4.877-16.623,6.606-31,8.446-16.337-24.8-27.638-43.417-36-71C166.17,302.018,185.888,278.224,195,270Z"/>
    <path id="Field_2" data-name="Field 2" class="cls-25" d="M193,271c-47.667,6.833-98.667,31-145,83,17.689,12.32,38.419,19.579,65,27C123.5,342.75,176.354,278.9,193,271Z"/>
    <path id="Field_2_dark" data-name="Field 2 dark" class="cls-52" d="M193,271a212.189,212.189,0,0,0-36.237,8.447,131.92,131.92,0,0,0,4.574,21.564C174.306,285.715,186.453,274.075,193,271Z"/>
    <path id="Field_1" data-name="Field 1" class="cls-25" d="M1,316.427C60.154,290.806,113.75,275.809,191,270c-79.417,14.281-110.039,40.38-156,77C25.706,339.415,5.2,322.578,1,316.427Z"/>
    <path id="Field_1_dark" data-name="Field 1 dark" class="cls-52" d="M156,273c11.079-1.305,22.868-2.132,35-3-12.8,2.191-24.334,4.673-34.868,7.443A15.377,15.377,0,0,1,156,273Z"/>
  </g>
</svg>
